<svg xmlns="http://www.w3.org/2000/svg" width="200" height="200" viewBox="0 0 400 400">
  <g id="clearsky" transform="translate(-1209.167 -533.004)">
    <path id="Path_41" data-name="Path 41" d="M15.442,8.011a4,4,0,0,1,7.283,0L35.6,36.329a4,4,0,0,1-3.641,5.655H6.212a4,4,0,0,1-3.641-5.655Z" transform="translate(1502.162 657.585) rotate(90)" fill="#eba548"/>
    <path id="Path_40" data-name="Path 40" d="M15.442,8.011a4,4,0,0,1,7.283,0L35.6,36.329a4,4,0,0,1-3.641,5.655H6.212a4,4,0,0,1-3.641-5.655Z" transform="translate(1203.5 695.753) rotate(-90)" fill="#eba548"/>
    <path id="Path_39" data-name="Path 39" d="M15.442,8.011a4,4,0,0,1,7.283,0L35.6,36.329a4,4,0,0,1-3.641,5.655H6.212a4,4,0,0,1-3.641-5.655Z" transform="translate(1472.614 585.476) rotate(60)" fill="#eba548"/>
    <path id="Path_38" data-name="Path 38" d="M15.442,8.011a4,4,0,0,1,7.283,0L35.6,36.329a4,4,0,0,1-3.641,5.655H6.212a4,4,0,0,1-3.641-5.655Z" transform="translate(1233.048 767.862) rotate(-120)" fill="#eba548"/>
    <path id="Path_37" data-name="Path 37" d="M15.442,8.011a4,4,0,0,1,7.283,0L35.6,36.329a4,4,0,0,1-3.641,5.655H6.212a4,4,0,0,1-3.641-5.655Z" transform="translate(1410.97 537.802) rotate(30)" fill="#eba548"/>
    <path id="Path_36" data-name="Path 36" d="M15.442,8.011a4,4,0,0,1,7.283,0L35.6,36.329a4,4,0,0,1-3.641,5.655H6.212a4,4,0,0,1-3.641-5.655Z" transform="translate(1294.693 815.535) rotate(-150)" fill="#eba548"/>
    <path id="Path_35" data-name="Path 35" d="M15.442,8.011a4,4,0,0,1,7.283,0L35.6,36.329a4,4,0,0,1-3.641,5.655H6.212a4,4,0,0,1-3.641-5.655Z" transform="translate(1333.747 527.338)" fill="#eba548"/>
    <path id="Path_34" data-name="Path 34" d="M15.442,8.011a4,4,0,0,1,7.283,0L35.6,36.329a4,4,0,0,1-3.641,5.655H6.212a4,4,0,0,1-3.641-5.655Z" transform="translate(1371.915 826) rotate(-180)" fill="#eba548"/>
    <path id="Path_33" data-name="Path 33" d="M15.442,8.011a4,4,0,0,1,7.283,0L35.6,36.329a4,4,0,0,1-3.641,5.655H6.212a4,4,0,0,1-3.641-5.655Z" transform="translate(1261.638 556.886) rotate(-30)" fill="#eba548"/>
    <path id="Path_32" data-name="Path 32" d="M15.442,8.011a4,4,0,0,1,7.283,0L35.6,36.329a4,4,0,0,1-3.641,5.655H6.212a4,4,0,0,1-3.641-5.655Z" transform="translate(1444.024 796.451) rotate(150)" fill="#eba548"/>
    <path id="Path_31" data-name="Path 31" d="M15.442,8.011a4,4,0,0,1,7.283,0L35.6,36.329a4,4,0,0,1-3.641,5.655H6.212a4,4,0,0,1-3.641-5.655Z" transform="translate(1213.964 618.53) rotate(-60)" fill="#eba548"/>
    <path id="Path_30" data-name="Path 30" d="M15.442,8.011a4,4,0,0,1,7.283,0L35.6,36.329a4,4,0,0,1-3.641,5.655H6.212a4,4,0,0,1-3.641-5.655Z" transform="translate(1491.698 734.807) rotate(120)" fill="#eba548"/>
    <path id="Inner" d="M108.5,0A108.5,108.5,0,1,1,0,108.5,108.5,108.5,0,0,1,108.5,0Z" transform="translate(1244 568)" fill="#eba548" stroke="#fff" stroke-width="6"/>
  </g>
</svg>
