<svg xmlns="http://www.w3.org/2000/svg" xmlns:xlink="http://www.w3.org/1999/xlink" width="555.262" height="338.954" viewBox="0 0 555.262 338.954">
  <defs>
    <linearGradient id="linear-gradient" x1="0.694" y1="0.265" x2="0.076" y2="1" gradientUnits="objectBoundingBox">
      <stop offset="0" stop-color="#dbdada"/>
      <stop offset="1" stop-color="#d1d1d1"/>
    </linearGradient>
    <linearGradient id="linear-gradient-2" x1="0.306" y1="0.265" x2="0.924" xlink:href="#linear-gradient"/>
  </defs>
  <g id="Drizzle" transform="translate(-1184.435 -470.046)">
    <path id="Path_1" data-name="Path 1" d="M2193.663,467.683h412.11s108.12-45.654,56.41-139.672-166.1-34.473-166.1-34.473S2483.55,177.583,2377,201.087s-117.522,126.924-117.522,126.924-51.709-90.884-114.388,0S2193.663,467.683,2193.663,467.683Z" transform="translate(-939 274.615)" stroke="#fff" stroke-width="5" fill="url(#linear-gradient)"/>
    <path id="Path_2" data-name="Path 2" d="M2360.4,329.012H2160.154s-52.536-22.184-27.41-67.868,80.708-16.751,80.708-16.751,6.091-56.344,57.866-44.923,57.1,61.673,57.1,61.673,25.126-44.161,55.582,0S2360.4,329.012,2360.4,329.012Z" transform="translate(-754.379 434.134)" stroke="#fff" stroke-width="5" fill="url(#linear-gradient-2)"/>
    <path id="Path_6" data-name="Path 6" d="M7.952-37.884C11.2-31.735,15.9-23.753,15.9-19.361a7.952,7.952,0,0,1-7.952,7.952A7.952,7.952,0,0,1,0-19.361c0-4.392,7.952-18.523,7.952-18.523Z" transform="translate(1285 795.419)" fill="#64bce4"/>
    <path id="Path_7" data-name="Path 7" d="M6.262-37.884c2.555,4.841,6.262,11.127,6.262,14.585a6.262,6.262,0,0,1-6.262,6.262A6.262,6.262,0,0,1,0-23.3c0-3.458,6.262-14.585,6.262-14.585Z" transform="translate(1305.984 815.038)" fill="#51a0c4"/>
    <path id="Path_8" data-name="Path 8" d="M7.952-37.884C11.2-31.735,15.9-23.753,15.9-19.361a7.952,7.952,0,0,1-7.952,7.952A7.952,7.952,0,0,1,0-19.361c0-4.392,7.952-18.523,7.952-18.523Z" transform="translate(1323.47 795.419)" fill="#94cfe9"/>
    <path id="Path_6-2" data-name="Path 6" d="M7.952-37.884C11.2-31.735,15.9-23.753,15.9-19.361a7.952,7.952,0,0,1-7.952,7.952A7.952,7.952,0,0,1,0-19.361c0-4.392,7.952-18.523,7.952-18.523Z" transform="translate(1408 806.419)" fill="#64bce4"/>
    <path id="Path_7-2" data-name="Path 7" d="M6.262-37.884c2.555,4.841,6.262,11.127,6.262,14.585a6.262,6.262,0,0,1-6.262,6.262A6.262,6.262,0,0,1,0-23.3c0-3.458,6.262-14.585,6.262-14.585Z" transform="translate(1428.984 826.038)" fill="#51a0c4"/>
    <path id="Path_8-2" data-name="Path 8" d="M7.952-37.884C11.2-31.735,15.9-23.753,15.9-19.361a7.952,7.952,0,0,1-7.952,7.952A7.952,7.952,0,0,1,0-19.361c0-4.392,7.952-18.523,7.952-18.523Z" transform="translate(1446.47 806.419)" fill="#94cfe9"/>
  </g>
</svg>
