<svg xmlns="http://www.w3.org/2000/svg" xmlns:xlink="http://www.w3.org/1999/xlink" width="555.262" height="274.752" viewBox="0 0 555.262 274.752">
  <defs>
    <linearGradient id="linear-gradient" x1="0.694" y1="0.265" x2="0.076" y2="1" gradientUnits="objectBoundingBox">
      <stop offset="0" stop-color="#c56666"/>
      <stop offset="1" stop-color="#e38e8e"/>
    </linearGradient>
  </defs>
  <g id="ERROR" transform="translate(-1132.435 -520.046)">
    <path id="Path_1" data-name="Path 1" d="M2193.663,467.683h412.11s108.12-45.654,56.41-139.672-166.1-34.473-166.1-34.473S2483.55,177.583,2377,201.087s-117.522,126.924-117.522,126.924-51.709-90.884-114.388,0S2193.663,467.683,2193.663,467.683Z" transform="translate(-991 324.615)" stroke="#fff" stroke-width="5" fill="url(#linear-gradient)"/>
    <path id="Path_46" data-name="Path 46" d="M6.42-8.19a3.608,3.608,0,0,1,1.747.435A3.231,3.231,0,0,1,9.443-6.5a3.785,3.785,0,0,1,.472,1.928,4.894,4.894,0,0,1-.592,2.408A4.379,4.379,0,0,1,7.71-.488,4.343,4.343,0,0,1,5.445.12a2.853,2.853,0,0,1-2.61-1.2L2.04,2.91H-.3L1.89-8.07H4.11l-.165.8A3.541,3.541,0,0,1,6.42-8.19ZM5.175-1.815a2.272,2.272,0,0,0,1.23-.337,2.282,2.282,0,0,0,.84-.938,3.046,3.046,0,0,0,.3-1.38,1.748,1.748,0,0,0-.487-1.3A1.852,1.852,0,0,0,5.7-6.255a2.245,2.245,0,0,0-1.215.338,2.282,2.282,0,0,0-.84.938,3.046,3.046,0,0,0-.3,1.38A1.763,1.763,0,0,0,3.825-2.3,1.825,1.825,0,0,0,5.175-1.815Zm7.68-9.315h2.34L12.975,0h-2.34Zm11.055,6.5a6.318,6.318,0,0,1-.135,1.23h-6.18q.12,1.65,2.085,1.65a3.569,3.569,0,0,0,1.177-.2,3,3,0,0,0,.983-.555L22.815-.96a4.656,4.656,0,0,1-1.545.81,6.139,6.139,0,0,1-1.83.27,5.062,5.062,0,0,1-2.183-.443,3.273,3.273,0,0,1-1.44-1.268,3.589,3.589,0,0,1-.5-1.9A4.8,4.8,0,0,1,15.922-5.9a4.36,4.36,0,0,1,1.688-1.68,4.93,4.93,0,0,1,2.46-.608,4.461,4.461,0,0,1,2.033.435A3.151,3.151,0,0,1,23.438-6.51,3.653,3.653,0,0,1,23.91-4.635Zm-3.945-1.8a2.206,2.206,0,0,0-1.4.443,2.385,2.385,0,0,0-.81,1.222h4a1.568,1.568,0,0,0-.487-1.222A1.879,1.879,0,0,0,19.965-6.435Zm14.4-1.635L32.76,0H30.54l.15-.8A3.541,3.541,0,0,1,28.215.12a3.566,3.566,0,0,1-1.74-.435,3.245,3.245,0,0,1-1.267-1.252A3.785,3.785,0,0,1,24.735-3.5,4.894,4.894,0,0,1,25.327-5.9a4.379,4.379,0,0,1,1.613-1.68,4.315,4.315,0,0,1,2.25-.608,2.856,2.856,0,0,1,2.625,1.215l.21-1.1Zm-5.43,6.255a2.272,2.272,0,0,0,1.23-.337,2.282,2.282,0,0,0,.84-.938,3.046,3.046,0,0,0,.3-1.38,1.748,1.748,0,0,0-.487-1.3,1.852,1.852,0,0,0-1.358-.48,2.272,2.272,0,0,0-1.23.338,2.282,2.282,0,0,0-.84.938,3.046,3.046,0,0,0-.3,1.38A1.748,1.748,0,0,0,27.577-2.3,1.852,1.852,0,0,0,28.935-1.815ZM37.86.12a8.232,8.232,0,0,1-1.987-.233A4.318,4.318,0,0,1,34.41-.72l.9-1.7a4.528,4.528,0,0,0,1.283.555,5.675,5.675,0,0,0,1.522.21,2.671,2.671,0,0,0,1.185-.2.63.63,0,0,0,.39-.577.458.458,0,0,0-.345-.435,7.08,7.08,0,0,0-1.11-.285A10.4,10.4,0,0,1,36.8-3.51a2.382,2.382,0,0,1-.975-.637,1.7,1.7,0,0,1-.413-1.208A2.376,2.376,0,0,1,36.532-7.44a5.174,5.174,0,0,1,2.933-.75,7.381,7.381,0,0,1,1.635.18,4.945,4.945,0,0,1,1.35.495l-.84,1.71a4.431,4.431,0,0,0-2.385-.615,2.4,2.4,0,0,0-1.162.225.657.657,0,0,0-.4.57.479.479,0,0,0,.345.458,7.046,7.046,0,0,0,1.155.307,10.706,10.706,0,0,1,1.4.352,2.306,2.306,0,0,1,.952.623A1.67,1.67,0,0,1,41.925-2.7,2.345,2.345,0,0,1,40.792-.615,5.3,5.3,0,0,1,37.86.12ZM51.645-4.635a6.318,6.318,0,0,1-.135,1.23H45.33q.12,1.65,2.085,1.65a3.569,3.569,0,0,0,1.178-.2,3,3,0,0,0,.982-.555L50.55-.96A4.656,4.656,0,0,1,49-.15a6.139,6.139,0,0,1-1.83.27,5.062,5.062,0,0,1-2.182-.443,3.273,3.273,0,0,1-1.44-1.268,3.589,3.589,0,0,1-.5-1.9A4.8,4.8,0,0,1,43.657-5.9a4.36,4.36,0,0,1,1.688-1.68,4.93,4.93,0,0,1,2.46-.608,4.461,4.461,0,0,1,2.032.435A3.151,3.151,0,0,1,51.173-6.51,3.653,3.653,0,0,1,51.645-4.635ZM47.7-6.435a2.206,2.206,0,0,0-1.395.443,2.385,2.385,0,0,0-.81,1.222H49.5a1.568,1.568,0,0,0-.488-1.222A1.879,1.879,0,0,0,47.7-6.435ZM59.73-2.85a1.424,1.424,0,0,0-.03.33q0,.78.855.78a1.843,1.843,0,0,0,.945-.285L61.845-.36a3.786,3.786,0,0,1-2.01.48A2.69,2.69,0,0,1,58-.48a2.072,2.072,0,0,1-.69-1.65,3.943,3.943,0,0,1,.075-.7l.645-3.255H56.79l.36-1.8h1.245l.39-1.965h2.34l-.39,1.965h2.01l-.36,1.8h-2.01ZM72.54-8.07,67.17.54a6.234,6.234,0,0,1-1.687,1.95,3.554,3.554,0,0,1-2,.54,4.026,4.026,0,0,1-1.237-.2,2.554,2.554,0,0,1-.952-.51L62.37.645a1.843,1.843,0,0,0,1.29.5,1.351,1.351,0,0,0,.78-.225A2.627,2.627,0,0,0,65.115.15L65.19.015,63.33-8.07h2.34l1.2,5.49,3.36-5.49Zm5.49-.12a3.609,3.609,0,0,1,1.748.435A3.231,3.231,0,0,1,81.052-6.5a3.785,3.785,0,0,1,.473,1.928,4.894,4.894,0,0,1-.592,2.408A4.379,4.379,0,0,1,79.32-.488,4.343,4.343,0,0,1,77.055.12a2.853,2.853,0,0,1-2.61-1.2L73.65,2.91H71.31L73.5-8.07h2.22l-.165.8A3.541,3.541,0,0,1,78.03-8.19ZM76.785-1.815a2.272,2.272,0,0,0,1.23-.337,2.282,2.282,0,0,0,.84-.938,3.046,3.046,0,0,0,.3-1.38,1.748,1.748,0,0,0-.487-1.3,1.852,1.852,0,0,0-1.358-.48,2.245,2.245,0,0,0-1.215.338,2.282,2.282,0,0,0-.84.938,3.046,3.046,0,0,0-.3,1.38,1.763,1.763,0,0,0,.48,1.305A1.825,1.825,0,0,0,76.785-1.815ZM91-4.635a6.319,6.319,0,0,1-.135,1.23H84.69q.12,1.65,2.085,1.65a3.569,3.569,0,0,0,1.177-.2,3,3,0,0,0,.982-.555L89.91-.96a4.656,4.656,0,0,1-1.545.81,6.139,6.139,0,0,1-1.83.27,5.062,5.062,0,0,1-2.182-.443,3.273,3.273,0,0,1-1.44-1.268,3.589,3.589,0,0,1-.5-1.9A4.8,4.8,0,0,1,83.017-5.9,4.36,4.36,0,0,1,84.7-7.583a4.93,4.93,0,0,1,2.46-.608,4.461,4.461,0,0,1,2.033.435A3.151,3.151,0,0,1,90.532-6.51,3.653,3.653,0,0,1,91-4.635Zm-3.945-1.8a2.206,2.206,0,0,0-1.395.443,2.385,2.385,0,0,0-.81,1.222H88.86a1.568,1.568,0,0,0-.488-1.222A1.879,1.879,0,0,0,87.06-6.435ZM105.7-8.07,104.1,0h-2.22l.15-.8A3.541,3.541,0,0,1,99.555.12a3.566,3.566,0,0,1-1.74-.435,3.245,3.245,0,0,1-1.268-1.252A3.785,3.785,0,0,1,96.075-3.5,4.894,4.894,0,0,1,96.667-5.9a4.379,4.379,0,0,1,1.612-1.68,4.315,4.315,0,0,1,2.25-.608,2.856,2.856,0,0,1,2.625,1.215l.21-1.1Zm-5.43,6.255a2.272,2.272,0,0,0,1.23-.337,2.282,2.282,0,0,0,.84-.938,3.046,3.046,0,0,0,.3-1.38,1.748,1.748,0,0,0-.487-1.3,1.852,1.852,0,0,0-1.357-.48,2.272,2.272,0,0,0-1.23.338,2.282,2.282,0,0,0-.84.938,3.046,3.046,0,0,0-.3,1.38A1.748,1.748,0,0,0,98.917-2.3,1.852,1.852,0,0,0,100.275-1.815ZM120.93-11.13,118.71,0h-2.22l.165-.81a3.542,3.542,0,0,1-2.475.93,3.566,3.566,0,0,1-1.74-.435,3.245,3.245,0,0,1-1.268-1.252A3.785,3.785,0,0,1,110.7-3.5a4.894,4.894,0,0,1,.592-2.408,4.379,4.379,0,0,1,1.612-1.68,4.315,4.315,0,0,1,2.25-.608,3.756,3.756,0,0,1,1.553.3,2.446,2.446,0,0,1,1.057.885l.825-4.125ZM114.9-1.815a2.272,2.272,0,0,0,1.23-.337,2.282,2.282,0,0,0,.84-.938,3.046,3.046,0,0,0,.3-1.38,1.748,1.748,0,0,0-.488-1.3,1.852,1.852,0,0,0-1.357-.48,2.272,2.272,0,0,0-1.23.338,2.282,2.282,0,0,0-.84.938,3.046,3.046,0,0,0-.3,1.38,1.748,1.748,0,0,0,.488,1.305A1.852,1.852,0,0,0,114.9-1.815Zm7.59-6.255h2.325L123.21,0h-2.325ZM124.05-9.2a1.393,1.393,0,0,1-.982-.352,1.128,1.128,0,0,1-.382-.863,1.3,1.3,0,0,1,.427-1,1.575,1.575,0,0,1,1.118-.4,1.452,1.452,0,0,1,1,.338,1.067,1.067,0,0,1,.382.832,1.346,1.346,0,0,1-.435,1.043A1.6,1.6,0,0,1,124.05-9.2Zm6.81-.21a1.18,1.18,0,0,0-.847.293,1.676,1.676,0,0,0-.428.922l-.06.3h2.055l-.36,1.8h-1.995L128.01,0h-2.34l1.215-6.09h-1.26l.36-1.8h1.26l.09-.465a3.725,3.725,0,0,1,1.178-2.123,3.437,3.437,0,0,1,2.332-.773,4.285,4.285,0,0,1,1.028.12,2.953,2.953,0,0,1,.832.33l-.915,1.68A1.492,1.492,0,0,0,130.86-9.405Zm5.8,0a1.18,1.18,0,0,0-.847.293,1.676,1.676,0,0,0-.428.922l-.06.3h2.055l-.36,1.8H135.03L133.815,0h-2.34l1.215-6.09h-1.26l.36-1.8h1.26l.09-.465a3.726,3.726,0,0,1,1.178-2.123,3.437,3.437,0,0,1,2.332-.773,4.285,4.285,0,0,1,1.028.12,2.953,2.953,0,0,1,.832.33l-.915,1.68A1.492,1.492,0,0,0,136.665-9.405Zm8.985,4.77a6.319,6.319,0,0,1-.135,1.23h-6.18q.12,1.65,2.085,1.65a3.569,3.569,0,0,0,1.177-.2,3,3,0,0,0,.983-.555l.975,1.545a4.656,4.656,0,0,1-1.545.81,6.139,6.139,0,0,1-1.83.27A5.062,5.062,0,0,1,139-.323a3.273,3.273,0,0,1-1.44-1.268,3.589,3.589,0,0,1-.5-1.9,4.8,4.8,0,0,1,.607-2.408,4.36,4.36,0,0,1,1.688-1.68,4.93,4.93,0,0,1,2.46-.608,4.461,4.461,0,0,1,2.033.435,3.151,3.151,0,0,1,1.335,1.245A3.653,3.653,0,0,1,145.65-4.635Zm-3.945-1.8a2.206,2.206,0,0,0-1.4.443,2.385,2.385,0,0,0-.81,1.222h4a1.568,1.568,0,0,0-.487-1.222A1.879,1.879,0,0,0,141.7-6.435Zm8.235-.675a3.036,3.036,0,0,1,1.268-.825,5.388,5.388,0,0,1,1.748-.255l-.42,2.16q-.42-.03-.54-.03a2.6,2.6,0,0,0-1.7.525A2.739,2.739,0,0,0,149.43-3.9L148.65,0h-2.34l1.6-8.07h2.22ZM161.4-4.635a6.319,6.319,0,0,1-.135,1.23h-6.18q.12,1.65,2.085,1.65a3.569,3.569,0,0,0,1.177-.2,3,3,0,0,0,.983-.555L160.3-.96a4.656,4.656,0,0,1-1.545.81,6.139,6.139,0,0,1-1.83.27,5.062,5.062,0,0,1-2.182-.443,3.273,3.273,0,0,1-1.44-1.268,3.589,3.589,0,0,1-.5-1.9,4.8,4.8,0,0,1,.607-2.408,4.36,4.36,0,0,1,1.688-1.68,4.93,4.93,0,0,1,2.46-.608,4.461,4.461,0,0,1,2.033.435,3.151,3.151,0,0,1,1.335,1.245A3.653,3.653,0,0,1,161.4-4.635Zm-3.945-1.8a2.206,2.206,0,0,0-1.4.443,2.385,2.385,0,0,0-.81,1.222h4a1.568,1.568,0,0,0-.487-1.222A1.879,1.879,0,0,0,157.455-6.435Zm10.9-1.755a3.1,3.1,0,0,1,2.145.713,2.588,2.588,0,0,1,.795,2.033,4.55,4.55,0,0,1-.1.975l-.9,4.47h-2.34l.87-4.32a2.422,2.422,0,0,0,.06-.555,1.267,1.267,0,0,0-.345-.96,1.446,1.446,0,0,0-1.035-.33,2.187,2.187,0,0,0-1.492.517,2.7,2.7,0,0,0-.8,1.552L164.4,0h-2.34l1.6-8.07h2.22l-.18.87A3.784,3.784,0,0,1,168.36-8.19ZM175.6-2.85a1.424,1.424,0,0,0-.03.33q0,.78.855.78a1.843,1.843,0,0,0,.945-.285L177.72-.36a3.786,3.786,0,0,1-2.01.48,2.69,2.69,0,0,1-1.83-.6,2.072,2.072,0,0,1-.69-1.65,3.943,3.943,0,0,1,.075-.7l.645-3.255h-1.245l.36-1.8h1.245l.39-1.965H177l-.39,1.965h2.01l-.36,1.8h-2.01ZM187.455.12a4.941,4.941,0,0,1-2.175-.45A3.344,3.344,0,0,1,183.847-1.6a3.55,3.55,0,0,1-.5-1.9,4.624,4.624,0,0,1,.63-2.4,4.505,4.505,0,0,1,1.755-1.68,5.2,5.2,0,0,1,2.535-.615,4.437,4.437,0,0,1,2.228.533,3.355,3.355,0,0,1,1.4,1.507l-1.98.99a1.84,1.84,0,0,0-1.8-1.1,2.31,2.31,0,0,0-1.238.338,2.316,2.316,0,0,0-.855.938,2.95,2.95,0,0,0-.308,1.365,1.759,1.759,0,0,0,.5,1.313,1.882,1.882,0,0,0,1.38.487,2.213,2.213,0,0,0,1.98-1.08l1.725,1.08A3.978,3.978,0,0,1,189.7-.39,4.914,4.914,0,0,1,187.455.12Zm6.21-8.19h2.325L194.385,0H192.06Zm1.56-1.125a1.393,1.393,0,0,1-.982-.352,1.128,1.128,0,0,1-.382-.863,1.3,1.3,0,0,1,.427-1,1.575,1.575,0,0,1,1.118-.4,1.452,1.452,0,0,1,1,.338,1.067,1.067,0,0,1,.382.832,1.346,1.346,0,0,1-.435,1.043A1.6,1.6,0,0,1,195.225-9.2ZM199.74-2.85a1.424,1.424,0,0,0-.03.33q0,.78.855.78a1.843,1.843,0,0,0,.945-.285l.345,1.665a3.786,3.786,0,0,1-2.01.48,2.69,2.69,0,0,1-1.83-.6,2.072,2.072,0,0,1-.69-1.65,3.943,3.943,0,0,1,.075-.7l.645-3.255H196.8l.36-1.8H198.4l.39-1.965h2.34l-.39,1.965h2.01l-.36,1.8h-2.01Zm12.81-5.22L207.18.54a6.234,6.234,0,0,1-1.687,1.95,3.554,3.554,0,0,1-2,.54,4.026,4.026,0,0,1-1.238-.2,2.554,2.554,0,0,1-.952-.51l1.08-1.68a1.843,1.843,0,0,0,1.29.5,1.351,1.351,0,0,0,.78-.225,2.626,2.626,0,0,0,.675-.765L205.2.015,203.34-8.07h2.34l1.2,5.49,3.36-5.49Zm9.9-.12a3.1,3.1,0,0,1,2.145.713,2.588,2.588,0,0,1,.795,2.033,4.55,4.55,0,0,1-.1.975l-.9,4.47h-2.34l.87-4.32a2.422,2.422,0,0,0,.06-.555,1.267,1.267,0,0,0-.345-.96,1.446,1.446,0,0,0-1.035-.33,2.187,2.187,0,0,0-1.492.517,2.7,2.7,0,0,0-.8,1.552L218.49,0h-2.34l1.6-8.07h2.22l-.18.87A3.784,3.784,0,0,1,222.45-8.19Zm13.95.12L234.795,0h-2.22l.15-.8A3.541,3.541,0,0,1,230.25.12a3.566,3.566,0,0,1-1.74-.435,3.245,3.245,0,0,1-1.268-1.252A3.785,3.785,0,0,1,226.77-3.5a4.894,4.894,0,0,1,.592-2.408,4.379,4.379,0,0,1,1.613-1.68,4.315,4.315,0,0,1,2.25-.608,2.856,2.856,0,0,1,2.625,1.215l.21-1.1Zm-5.43,6.255a2.272,2.272,0,0,0,1.23-.337,2.282,2.282,0,0,0,.84-.938,3.046,3.046,0,0,0,.3-1.38,1.748,1.748,0,0,0-.488-1.3,1.852,1.852,0,0,0-1.357-.48,2.272,2.272,0,0,0-1.23.338,2.282,2.282,0,0,0-.84.938,3.046,3.046,0,0,0-.3,1.38,1.748,1.748,0,0,0,.488,1.305A1.852,1.852,0,0,0,230.97-1.815ZM248.685-8.19a2.994,2.994,0,0,1,2.1.713,2.594,2.594,0,0,1,.78,2.017,4.906,4.906,0,0,1-.1.99L250.575,0h-2.34l.855-4.3a3.129,3.129,0,0,0,.06-.615,1.244,1.244,0,0,0-.322-.93,1.311,1.311,0,0,0-.952-.315q-1.7,0-2.115,2.025L244.935,0h-2.34l.855-4.3a3.053,3.053,0,0,0,.06-.6,1.27,1.27,0,0,0-.322-.937,1.292,1.292,0,0,0-.952-.322q-1.7,0-2.13,2.055L239.295,0h-2.34l1.6-8.07h2.22l-.18.84a3.624,3.624,0,0,1,2.535-.96,3.2,3.2,0,0,1,1.493.338,2.223,2.223,0,0,1,.982.983,3.936,3.936,0,0,1,1.365-.983A4.26,4.26,0,0,1,248.685-8.19ZM261.54-4.635a6.319,6.319,0,0,1-.135,1.23h-6.18q.12,1.65,2.085,1.65a3.569,3.569,0,0,0,1.178-.2,3,3,0,0,0,.982-.555l.975,1.545a4.656,4.656,0,0,1-1.545.81,6.139,6.139,0,0,1-1.83.27,5.062,5.062,0,0,1-2.182-.443,3.273,3.273,0,0,1-1.44-1.268,3.589,3.589,0,0,1-.5-1.9,4.8,4.8,0,0,1,.607-2.408,4.36,4.36,0,0,1,1.688-1.68,4.93,4.93,0,0,1,2.46-.608,4.461,4.461,0,0,1,2.033.435,3.151,3.151,0,0,1,1.335,1.245A3.653,3.653,0,0,1,261.54-4.635Zm-3.945-1.8a2.206,2.206,0,0,0-1.395.443,2.385,2.385,0,0,0-.81,1.222h4.005a1.568,1.568,0,0,0-.488-1.222A1.879,1.879,0,0,0,257.595-6.435Z" transform="translate(1209 745)" fill="#414141"/>
    <path id="Path_45" data-name="Path 45" d="M41.875-8.71V0H5.561V-46.9H41v8.71H16.348v10.184H38.123v8.442H16.348V-8.71ZM80.4,0,71.355-13.065H61.372V0H50.518V-46.9h20.3A26.054,26.054,0,0,1,81.64-44.823a16.076,16.076,0,0,1,7.069,5.9,16.243,16.243,0,0,1,2.479,9.045,15.918,15.918,0,0,1-2.513,9.011,15.925,15.925,0,0,1-7.135,5.8L92.058,0Zm-.2-29.882a7.429,7.429,0,0,0-2.546-6.064q-2.546-2.11-7.437-2.11H61.372v16.348h8.844q4.891,0,7.437-2.144A7.45,7.45,0,0,0,80.2-29.882ZM129.645,0,120.6-13.065h-9.983V0H99.763V-46.9h20.3a26.054,26.054,0,0,1,10.821,2.077,16.076,16.076,0,0,1,7.068,5.9,16.243,16.243,0,0,1,2.479,9.045,15.918,15.918,0,0,1-2.512,9.011,15.925,15.925,0,0,1-7.136,5.8L141.3,0Zm-.2-29.882a7.429,7.429,0,0,0-2.546-6.064q-2.546-2.11-7.437-2.11h-8.844v16.348h8.844q4.891,0,7.437-2.144A7.45,7.45,0,0,0,129.444-29.882ZM171.721.8a27.375,27.375,0,0,1-13.165-3.149,23.372,23.372,0,0,1-9.179-8.677A23.687,23.687,0,0,1,146.06-23.45a23.687,23.687,0,0,1,3.316-12.429,23.372,23.372,0,0,1,9.179-8.676A27.375,27.375,0,0,1,171.721-47.7a27.18,27.18,0,0,1,13.132,3.149,23.674,23.674,0,0,1,9.179,8.676,23.506,23.506,0,0,1,3.35,12.429,23.506,23.506,0,0,1-3.35,12.429,23.674,23.674,0,0,1-9.179,8.677A27.18,27.18,0,0,1,171.721.8Zm0-9.246a14.883,14.883,0,0,0,7.5-1.91,13.7,13.7,0,0,0,5.26-5.326,15.658,15.658,0,0,0,1.91-7.772,15.658,15.658,0,0,0-1.91-7.772,13.7,13.7,0,0,0-5.26-5.327,14.883,14.883,0,0,0-7.5-1.909,14.883,14.883,0,0,0-7.5,1.909,13.7,13.7,0,0,0-5.26,5.327,15.658,15.658,0,0,0-1.91,7.772,15.658,15.658,0,0,0,1.91,7.772,13.7,13.7,0,0,0,5.26,5.326A14.882,14.882,0,0,0,171.721-8.442ZM235.438,0l-9.045-13.065H216.41V0H205.556V-46.9h20.3a26.054,26.054,0,0,1,10.821,2.077,16.076,16.076,0,0,1,7.068,5.9,16.243,16.243,0,0,1,2.479,9.045,15.918,15.918,0,0,1-2.512,9.011,15.925,15.925,0,0,1-7.135,5.8L247.1,0Zm-.2-29.882a7.429,7.429,0,0,0-2.546-6.064q-2.546-2.11-7.437-2.11H216.41v16.348h8.844q4.891,0,7.437-2.144A7.45,7.45,0,0,0,235.237-29.882ZM252.724-46.9h12.462l-2.077,30.619H254.8ZM258.955.536a6.354,6.354,0,0,1-4.589-1.776,5.775,5.775,0,0,1-1.842-4.322,5.612,5.612,0,0,1,1.809-4.254,6.462,6.462,0,0,1,4.623-1.708,6.462,6.462,0,0,1,4.623,1.708,5.612,5.612,0,0,1,1.809,4.254,5.775,5.775,0,0,1-1.842,4.322A6.354,6.354,0,0,1,258.955.536Z" transform="translate(1204 731)" fill="#414141"/>
  </g>
</svg>
