<svg xmlns="http://www.w3.org/2000/svg" width="337.402" height="223" viewBox="0 0 337.402 223">
  <g id="mist" transform="translate(-1254 -565)">
    <path id="Inner" d="M108.5,0A108.5,108.5,0,1,1,0,108.5,108.5,108.5,0,0,1,108.5,0Z" transform="translate(1321 568)" fill="#ecc085" stroke="#fff" stroke-width="6"/>
    <path id="Path_44" data-name="Path 44" d="M-939.325-3279.649A16.676,16.676,0,0,1-956-3296.325,16.675,16.675,0,0,1-939.325-3313h96.052a16.675,16.675,0,0,1,16.675,16.675,16.676,16.676,0,0,1-16.675,16.676Z" transform="translate(2418 3959.649)" fill="#d7d7d7" opacity="0.8"/>
    <path id="Path_43" data-name="Path 43" d="M-867-3164a25,25,0,0,1-25-25,25,25,0,0,1,25-25h.03a24.907,24.907,0,0,0,10.641-6.332A24.831,24.831,0,0,0-849-3238a25.028,25.028,0,0,0-25-25h-57a25,25,0,0,1-25-25,25,25,0,0,1,25-25h144a25,25,0,0,1,25,25,25,25,0,0,1-25,25h-10.336A25.082,25.082,0,0,0-822-3238a25.123,25.123,0,0,0,18.015,24H-723a25,25,0,0,1,25,25,25,25,0,0,1-25,25Z" transform="translate(2210 3918)" fill="#cfcfcf" opacity="0.8"/>
    <path id="Path_42" data-name="Path 42" d="M-944.508-3290.015A11.492,11.492,0,0,1-956-3301.507,11.492,11.492,0,0,1-944.508-3313h66.2a11.492,11.492,0,0,1,11.492,11.493,11.492,11.492,0,0,1-11.492,11.492Z" transform="translate(2405 3888.015)" fill="#d7d7d7" opacity="0.8"/>
  </g>
</svg>
