<svg xmlns="http://www.w3.org/2000/svg" xmlns:xlink="http://www.w3.org/1999/xlink" width="555.262" height="360.954" viewBox="0 0 555.262 360.954">
  <defs>
    <linearGradient id="linear-gradient" x1="0.694" y1="0.265" x2="0.076" y2="1" gradientUnits="objectBoundingBox">
      <stop offset="0" stop-color="#9e9e9e"/>
      <stop offset="1" stop-color="#7a7a7a"/>
    </linearGradient>
    <linearGradient id="linear-gradient-2" x1="0.306" y1="0.265" x2="0.924" y2="1" gradientUnits="objectBoundingBox">
      <stop offset="0" stop-color="#949494"/>
      <stop offset="1" stop-color="#aeaeae"/>
    </linearGradient>
  </defs>
  <g id="rain" transform="translate(-1184.435 -470.046)">
    <path id="Path_1" data-name="Path 1" d="M2193.663,467.683h412.11s108.12-45.654,56.41-139.672-166.1-34.473-166.1-34.473S2483.55,177.583,2377,201.087s-117.522,126.924-117.522,126.924-51.709-90.884-114.388,0S2193.663,467.683,2193.663,467.683Z" transform="translate(-939 274.615)" stroke="#fff" stroke-width="5" fill="url(#linear-gradient)"/>
    <path id="Path_2" data-name="Path 2" d="M2360.4,329.012H2160.154s-52.536-22.184-27.41-67.868,80.708-16.751,80.708-16.751,6.091-56.344,57.866-44.923,57.1,61.673,57.1,61.673,25.126-44.161,55.582,0S2360.4,329.012,2360.4,329.012Z" transform="translate(-754.379 434.134)" stroke="#fff" stroke-width="5" fill="url(#linear-gradient-2)"/>
    <path id="Path_6" data-name="Path 6" d="M11.369-37.884c4.639,8.79,11.369,20.2,11.369,26.482A11.369,11.369,0,0,1,11.369-.032,11.369,11.369,0,0,1,0-11.4c0-6.279,11.369-26.482,11.369-26.482Z" transform="translate(1301 782.032)" fill="#64bce4"/>
    <path id="Path_7" data-name="Path 7" d="M8.952-37.884C12.6-30.962,17.9-21.976,17.9-17.032A8.952,8.952,0,0,1,8.952-8.08,8.952,8.952,0,0,1,0-17.032c0-4.944,8.952-20.852,8.952-20.852Z" transform="translate(1330 818.08)" fill="#51a0c4"/>
    <path id="Path_8" data-name="Path 8" d="M11.369-37.884c4.639,8.79,11.369,20.2,11.369,26.482A11.369,11.369,0,0,1,11.369-.032,11.369,11.369,0,0,1,0-11.4c0-6.279,11.369-26.482,11.369-26.482Z" transform="translate(1356 782.032)" fill="#94cfe9"/>
    <path id="Path_12" data-name="Path 12" d="M9.419-37.884c3.843,7.282,9.419,16.737,9.419,21.939A9.419,9.419,0,0,1,9.419-6.526,9.419,9.419,0,0,1,0-15.945c0-5.2,9.419-21.939,9.419-21.939Z" transform="translate(1413 801.958)" fill="#64bce4"/>
    <path id="Path_13" data-name="Path 13" d="M7.416-37.884c3.026,5.734,7.416,13.178,7.416,17.274a7.416,7.416,0,0,1-7.416,7.416A7.416,7.416,0,0,1,0-20.61c0-4.1,7.416-17.274,7.416-17.274Z" transform="translate(1437.853 825.194)" fill="#51a0c4"/>
    <path id="Path_14" data-name="Path 14" d="M9.419-37.884c3.843,7.282,9.419,16.737,9.419,21.939A9.419,9.419,0,0,1,9.419-6.526,9.419,9.419,0,0,1,0-15.945c0-5.2,9.419-21.939,9.419-21.939Z" transform="translate(1458.563 801.958)" fill="#94cfe9"/>
    <path id="Path_15" data-name="Path 15" d="M5.816-37.884c2.373,4.5,5.816,10.334,5.816,13.546a5.816,5.816,0,0,1-5.816,5.816A5.816,5.816,0,0,1,0-24.337c0-3.212,5.816-13.546,5.816-13.546Z" transform="translate(1307 849.522)" fill="#64bce4"/>
    <path id="Path_16" data-name="Path 16" d="M8.952-37.884C12.6-30.962,17.9-21.976,17.9-17.032A8.952,8.952,0,0,1,8.952-8.08,8.952,8.952,0,0,1,0-17.032c0-4.944,8.952-20.852,8.952-20.852Z" transform="translate(1280 818.08)" fill="#51a0c4"/>
    <path id="Path_17" data-name="Path 17" d="M11.369-37.884c4.639,8.79,11.369,20.2,11.369,26.482A11.369,11.369,0,0,1,11.369-.032,11.369,11.369,0,0,1,0-11.4c0-6.279,11.369-26.482,11.369-26.482Z" transform="translate(1250 782.032)" fill="#94cfe9"/>
  </g>
</svg>
