<svg xmlns="http://www.w3.org/2000/svg" xmlns:xlink="http://www.w3.org/1999/xlink" width="555.262" height="362.954" viewBox="0 0 555.262 362.954">
  <defs>
    <linearGradient id="linear-gradient" x1="0.694" y1="0.265" x2="0.076" y2="1" gradientUnits="objectBoundingBox">
      <stop offset="0" stop-color="#dbdada"/>
      <stop offset="1" stop-color="#d1d1d1"/>
    </linearGradient>
    <linearGradient id="linear-gradient-2" x1="0.306" y1="0.265" x2="0.924" xlink:href="#linear-gradient"/>
  </defs>
  <g id="Snow" transform="translate(-1184.435 -470.046)">
    <path id="Path_1" data-name="Path 1" d="M2193.663,467.683h412.11s108.12-45.654,56.41-139.672-166.1-34.473-166.1-34.473S2483.55,177.583,2377,201.087s-117.522,126.924-117.522,126.924-51.709-90.884-114.388,0S2193.663,467.683,2193.663,467.683Z" transform="translate(-939 274.615)" stroke="#fff" stroke-width="5" fill="url(#linear-gradient)"/>
    <path id="Path_2" data-name="Path 2" d="M2360.4,329.012H2160.154s-52.536-22.184-27.41-67.868,80.708-16.751,80.708-16.751,6.091-56.344,57.866-44.923,57.1,61.673,57.1,61.673,25.126-44.161,55.582,0S2360.4,329.012,2360.4,329.012Z" transform="translate(-754.379 434.134)" stroke="#fff" stroke-width="5" fill="url(#linear-gradient-2)"/>
    <path id="Path_29" data-name="Path 29" d="M0,0V52.545" transform="translate(1277.669 736.298)" fill="none" stroke="#81b2b2" stroke-linecap="round" stroke-width="5"/>
    <path id="Path_28" data-name="Path 28" d="M0,0H49.454" transform="translate(1252.5 762.35)" fill="none" stroke="#81b2b2" stroke-linecap="round" stroke-width="5"/>
    <path id="Path_27" data-name="Path 27" d="M0,35.766,36.208,0" transform="translate(1259.565 744.688)" fill="none" stroke="#81b2b2" stroke-linecap="round" stroke-width="5"/>
    <path id="Path_26" data-name="Path 26" d="M36.208,35.766,0,0" transform="translate(1259.565 744.688)" fill="none" stroke="#81b2b2" stroke-linecap="round" stroke-width="5"/>
    <path id="Path_25" data-name="Path 25" d="M0,8.831,11.039,0" transform="translate(1277.669 740.272)" fill="none" stroke="#81b2b2" stroke-linecap="round" stroke-width="5"/>
    <path id="Path_24" data-name="Path 24" d="M10.6,8.831,0,0" transform="translate(1267.071 740.272)" fill="none" stroke="#81b2b2" stroke-linecap="round" stroke-width="5"/>
    <path id="Path_23" data-name="Path 23" d="M0,8.831,11.039,0" transform="translate(1278.11 784.428) rotate(180)" fill="none" stroke="#81b2b2" stroke-linecap="round" stroke-width="5"/>
    <path id="Path_22" data-name="Path 22" d="M10.6,8.831,0,0" transform="translate(1288.708 784.428) rotate(180)" fill="none" stroke="#81b2b2" stroke-linecap="round" stroke-width="5"/>
    <path id="Path_21" data-name="Path 21" d="M0,8.831,11.039,0" transform="translate(1299.967 762.129) rotate(90)" fill="none" stroke="#81b2b2" stroke-linecap="round" stroke-width="5"/>
    <path id="Path_20" data-name="Path 20" d="M10.6,8.831,0,0" transform="translate(1299.967 751.532) rotate(90)" fill="none" stroke="#81b2b2" stroke-linecap="round" stroke-width="5"/>
    <path id="Path_19" data-name="Path 19" d="M0,8.831,11.039,0" transform="translate(1255.812 762.571) rotate(-90)" fill="none" stroke="#81b2b2" stroke-linecap="round" stroke-width="5"/>
    <path id="Path_18" data-name="Path 18" d="M10.6,8.831,0,0" transform="translate(1255.812 773.168) rotate(-90)" fill="none" stroke="#81b2b2" stroke-linecap="round" stroke-width="5"/>
    <path id="Path_29-2" data-name="Path 29" d="M0,0V52.545" transform="translate(1351.373 777.955)" fill="none" stroke="#81b2b2" stroke-linecap="round" stroke-width="5"/>
    <path id="Path_28-2" data-name="Path 28" d="M0,0H49.454" transform="translate(1326.204 804.007)" fill="none" stroke="#81b2b2" stroke-linecap="round" stroke-width="5"/>
    <path id="Path_27-2" data-name="Path 27" d="M0,35.766,36.208,0" transform="translate(1333.269 786.345)" fill="none" stroke="#81b2b2" stroke-linecap="round" stroke-width="5"/>
    <path id="Path_26-2" data-name="Path 26" d="M36.208,35.766,0,0" transform="translate(1333.269 786.345)" fill="none" stroke="#81b2b2" stroke-linecap="round" stroke-width="5"/>
    <path id="Path_25-2" data-name="Path 25" d="M0,8.831,11.039,0" transform="translate(1351.373 781.929)" fill="none" stroke="#81b2b2" stroke-linecap="round" stroke-width="5"/>
    <path id="Path_24-2" data-name="Path 24" d="M10.6,8.831,0,0" transform="translate(1340.775 781.929)" fill="none" stroke="#81b2b2" stroke-linecap="round" stroke-width="5"/>
    <path id="Path_23-2" data-name="Path 23" d="M0,8.831,11.039,0" transform="translate(1351.814 826.085) rotate(180)" fill="none" stroke="#81b2b2" stroke-linecap="round" stroke-width="5"/>
    <path id="Path_22-2" data-name="Path 22" d="M10.6,8.831,0,0" transform="translate(1362.412 826.085) rotate(180)" fill="none" stroke="#81b2b2" stroke-linecap="round" stroke-width="5"/>
    <path id="Path_21-2" data-name="Path 21" d="M0,8.831,11.039,0" transform="translate(1373.671 803.786) rotate(90)" fill="none" stroke="#81b2b2" stroke-linecap="round" stroke-width="5"/>
    <path id="Path_20-2" data-name="Path 20" d="M10.6,8.831,0,0" transform="translate(1373.671 793.189) rotate(90)" fill="none" stroke="#81b2b2" stroke-linecap="round" stroke-width="5"/>
    <path id="Path_19-2" data-name="Path 19" d="M0,8.831,11.039,0" transform="translate(1329.516 804.228) rotate(-90)" fill="none" stroke="#81b2b2" stroke-linecap="round" stroke-width="5"/>
    <path id="Path_18-2" data-name="Path 18" d="M10.6,8.831,0,0" transform="translate(1329.516 814.825) rotate(-90)" fill="none" stroke="#81b2b2" stroke-linecap="round" stroke-width="5"/>
    <path id="Path_29-3" data-name="Path 29" d="M0,0V52.545" transform="translate(1432.09 739.914)" fill="none" stroke="#81b2b2" stroke-linecap="round" stroke-width="5"/>
    <path id="Path_28-3" data-name="Path 28" d="M0,0H49.454" transform="translate(1406.922 765.966)" fill="none" stroke="#81b2b2" stroke-linecap="round" stroke-width="5"/>
    <path id="Path_27-3" data-name="Path 27" d="M0,35.766,36.208,0" transform="translate(1413.987 748.304)" fill="none" stroke="#81b2b2" stroke-linecap="round" stroke-width="5"/>
    <path id="Path_26-3" data-name="Path 26" d="M36.208,35.766,0,0" transform="translate(1413.987 748.304)" fill="none" stroke="#81b2b2" stroke-linecap="round" stroke-width="5"/>
    <path id="Path_25-3" data-name="Path 25" d="M0,8.831,11.039,0" transform="translate(1432.09 743.888)" fill="none" stroke="#81b2b2" stroke-linecap="round" stroke-width="5"/>
    <path id="Path_24-3" data-name="Path 24" d="M10.6,8.831,0,0" transform="translate(1421.493 743.888)" fill="none" stroke="#81b2b2" stroke-linecap="round" stroke-width="5"/>
    <path id="Path_23-3" data-name="Path 23" d="M0,8.831,11.039,0" transform="translate(1432.532 788.044) rotate(180)" fill="none" stroke="#81b2b2" stroke-linecap="round" stroke-width="5"/>
    <path id="Path_22-3" data-name="Path 22" d="M10.6,8.831,0,0" transform="translate(1443.129 788.044) rotate(180)" fill="none" stroke="#81b2b2" stroke-linecap="round" stroke-width="5"/>
    <path id="Path_21-3" data-name="Path 21" d="M0,8.831,11.039,0" transform="translate(1454.389 765.745) rotate(90)" fill="none" stroke="#81b2b2" stroke-linecap="round" stroke-width="5"/>
    <path id="Path_20-3" data-name="Path 20" d="M10.6,8.831,0,0" transform="translate(1454.389 755.148) rotate(90)" fill="none" stroke="#81b2b2" stroke-linecap="round" stroke-width="5"/>
    <path id="Path_19-3" data-name="Path 19" d="M0,8.831,11.039,0" transform="translate(1410.233 766.187) rotate(-90)" fill="none" stroke="#81b2b2" stroke-linecap="round" stroke-width="5"/>
    <path id="Path_18-3" data-name="Path 18" d="M10.6,8.831,0,0" transform="translate(1410.233 776.784) rotate(-90)" fill="none" stroke="#81b2b2" stroke-linecap="round" stroke-width="5"/>
  </g>
</svg>
