<svg xmlns="http://www.w3.org/2000/svg" xmlns:xlink="http://www.w3.org/1999/xlink" width="555.262" height="274.752" viewBox="0 0 555.262 274.752">
  <defs>
    <linearGradient id="linear-gradient" x1="0.694" y1="0.265" x2="0.076" y2="1" gradientUnits="objectBoundingBox">
      <stop offset="0" stop-color="#dbdada"/>
      <stop offset="1" stop-color="#d1d1d1"/>
    </linearGradient>
  </defs>
  <g id="welcome" transform="translate(-1132.435 -520.046)">
    <path id="Path_1" data-name="Path 1" d="M2193.663,467.683h412.11s108.12-45.654,56.41-139.672-166.1-34.473-166.1-34.473S2483.55,177.583,2377,201.087s-117.522,126.924-117.522,126.924-51.709-90.884-114.388,0S2193.663,467.683,2193.663,467.683Z" transform="translate(-991 324.615)" stroke="#fff" stroke-width="5" fill="url(#linear-gradient)"/>
    <path id="Path_47" data-name="Path 47" d="M54.768-33.6,43.776,0H35.424L28.032-22.752,20.4,0H12.1L1.056-33.6H9.12L16.7-9.984,24.624-33.6h7.2L39.5-9.792,47.328-33.6ZM81.936-12.816q0,.144-.144,2.016H62.256a6.084,6.084,0,0,0,2.5,3.792,8.267,8.267,0,0,0,4.9,1.392,9.914,9.914,0,0,0,3.576-.6,8.661,8.661,0,0,0,2.9-1.9l3.984,4.32Q76.464.384,69.456.384a16.857,16.857,0,0,1-7.728-1.7,12.491,12.491,0,0,1-5.184-4.728,13.027,13.027,0,0,1-1.824-6.864,13.2,13.2,0,0,1,1.8-6.84A12.61,12.61,0,0,1,61.464-24.5a14.516,14.516,0,0,1,7.032-1.7,14.4,14.4,0,0,1,6.864,1.632,11.912,11.912,0,0,1,4.824,4.68A13.955,13.955,0,0,1,81.936-12.816ZM68.544-20.544a6.449,6.449,0,0,0-4.272,1.44,6.13,6.13,0,0,0-2.112,3.936H74.88a6.191,6.191,0,0,0-2.112-3.912A6.313,6.313,0,0,0,68.544-20.544ZM86.928-35.616h7.488V0H86.928Zm26.928,36a15.877,15.877,0,0,1-7.416-1.7A12.76,12.76,0,0,1,101.3-6.048a12.9,12.9,0,0,1-1.848-6.864,12.9,12.9,0,0,1,1.848-6.864A12.76,12.76,0,0,1,106.44-24.5a15.877,15.877,0,0,1,7.416-1.7,14.369,14.369,0,0,1,7.128,1.7,10.106,10.106,0,0,1,4.44,4.872l-5.808,3.12a6.348,6.348,0,0,0-5.808-3.552,6.571,6.571,0,0,0-4.848,1.92,7.07,7.07,0,0,0-1.92,5.232,7.07,7.07,0,0,0,1.92,5.232,6.571,6.571,0,0,0,4.848,1.92,6.283,6.283,0,0,0,5.808-3.552l5.808,3.168a10.309,10.309,0,0,1-4.44,4.8A14.209,14.209,0,0,1,113.856.384Zm27.84,0a15.485,15.485,0,0,1-7.32-1.7,12.668,12.668,0,0,1-5.064-4.728,13.027,13.027,0,0,1-1.824-6.864,13.027,13.027,0,0,1,1.824-6.864,12.668,12.668,0,0,1,5.064-4.728,15.485,15.485,0,0,1,7.32-1.7,15.342,15.342,0,0,1,7.3,1.7,12.707,12.707,0,0,1,5.04,4.728,13.027,13.027,0,0,1,1.824,6.864,13.027,13.027,0,0,1-1.824,6.864,12.707,12.707,0,0,1-5.04,4.728A15.342,15.342,0,0,1,141.7.384Zm0-6.144A6.237,6.237,0,0,0,146.424-7.7a7.247,7.247,0,0,0,1.848-5.208,7.247,7.247,0,0,0-1.848-5.208,6.237,6.237,0,0,0-4.728-1.944,6.314,6.314,0,0,0-4.752,1.944,7.192,7.192,0,0,0-1.872,5.208A7.192,7.192,0,0,0,136.944-7.7,6.314,6.314,0,0,0,141.7-5.76ZM193.92-26.208a10.41,10.41,0,0,1,7.7,2.856q2.856,2.856,2.856,8.568V0h-7.488V-13.632a7,7,0,0,0-1.272-4.584,4.472,4.472,0,0,0-3.624-1.512,5.34,5.34,0,0,0-4.176,1.7,7.345,7.345,0,0,0-1.536,5.064V0H178.9V-13.632q0-6.1-4.9-6.1a5.283,5.283,0,0,0-4.128,1.7,7.345,7.345,0,0,0-1.536,5.064V0h-7.488V-25.824H168v2.976a9.451,9.451,0,0,1,3.528-2.5,11.875,11.875,0,0,1,4.584-.864,11.1,11.1,0,0,1,4.944,1.08,8.755,8.755,0,0,1,3.552,3.144,10.593,10.593,0,0,1,4.008-3.12A12.645,12.645,0,0,1,193.92-26.208Zm42.864,13.392q0,.144-.144,2.016H217.1a6.084,6.084,0,0,0,2.5,3.792,8.267,8.267,0,0,0,4.9,1.392,9.914,9.914,0,0,0,3.576-.6,8.662,8.662,0,0,0,2.9-1.9l3.984,4.32Q231.312.384,224.3.384a16.857,16.857,0,0,1-7.728-1.7,12.491,12.491,0,0,1-5.184-4.728,13.027,13.027,0,0,1-1.824-6.864,13.2,13.2,0,0,1,1.8-6.84,12.61,12.61,0,0,1,4.944-4.752,14.516,14.516,0,0,1,7.032-1.7,14.4,14.4,0,0,1,6.864,1.632,11.912,11.912,0,0,1,4.824,4.68A13.955,13.955,0,0,1,236.784-12.816Zm-13.392-7.728a6.449,6.449,0,0,0-4.272,1.44,6.13,6.13,0,0,0-2.112,3.936h12.72a6.191,6.191,0,0,0-2.112-3.912A6.313,6.313,0,0,0,223.392-20.544Z" transform="translate(1187 740)" fill="#eee"/>
  </g>
</svg>
